<?xml version="1.0" encoding="utf-8"?>
<!-- Generator: Adobe Illustrator 27.2.0, SVG Export Plug-In . SVG Version: 6.00 Build 0)  -->
<svg version="1.1" id="Capa_1" xmlns="http://www.w3.org/2000/svg" xmlns:xlink="http://www.w3.org/1999/xlink" x="0px" y="0px"
	 viewBox="0 0 500 500" style="enable-background:new 0 0 500 500;" xml:space="preserve">
<style type="text/css">
	.st0{fill:#0002DB;}
</style>
<path class="st0" d="M-4-1.5v503h508v-503H-4z M32.1,337.3c-2.6-2.7-3.8-6.9-3.8-12.7V131.4c0-5.8,1.3-10,4-12.7
	c2.7-2.7,7.2-4,13.7-4h31.6c4.4,0,7.9,0.6,10.5,1.7c2.6,1.1,4.5,3.3,5.8,6.7l48.3,116.6l48.6-116.6c1.3-3.3,3.3-5.5,5.8-6.7
	c2.5-1.1,6-1.7,10.5-1.7h31.6c6.4,0,11,1.3,13.7,4c2.7,2.7,4,6.9,4,12.7v193.2c0,5.8-1.3,10-3.8,12.7c-2.6,2.7-7.1,4-13.5,4h-26.3
	c-6.4,0-11-1.3-13.7-4c-2.7-2.7-4-6.9-4-12.7V216.4l-32.3,72.3c-2.2,5.6-4.7,9.5-7.3,11.8c-2.7,2.3-7.1,3.5-13.3,3.5
	c-6,0-10.3-1.2-13-3.5c-2.7-2.3-5.2-6.3-7.7-11.8l-32-72.3v108.2c0,5.8-1.3,10-4,12.7c-2.7,2.7-7.2,4-13.7,4H45.6
	C39.1,341.3,34.6,339.9,32.1,337.3z M309.5,337.3c-2.6-2.7-3.8-6.9-3.8-12.7V131.8c0-5.8,1.3-10,4-12.8c2.7-2.8,7.1-4.2,13.3-4.2
	h138.2c6.2,0,10.4,1.3,12.7,3.8c2.2,2.6,3.3,6.8,3.3,12.8v15.3c0,6-1.1,10.3-3.3,12.8c-2.2,2.6-6.4,3.8-12.7,3.8h-88.3V204h58.3
	c6.2,0,10.5,1.3,12.8,3.8c2.3,2.6,3.5,6.8,3.5,12.8v14.7c0,6-1.2,10.3-3.5,12.8c-2.3,2.6-6.6,3.8-12.8,3.8h-58.3v41h87.9
	c6.2,0,10.4,1.3,12.7,3.8c2.2,2.6,3.3,6.8,3.3,12.8v15.3c0,5.8-1.1,9.9-3.3,12.5c-2.2,2.6-6.4,3.8-12.7,3.8H322.9
	C316.5,341.3,312,339.9,309.5,337.3z"/>
<g>
	<path class="st0" d="M923.9-74.7l-0.6-95.2l-47.2,77.4c-0.3,0.4-0.7,0.7-1.2,0.7H852c-0.5,0-1-0.3-1.2-0.7l-47.2-74.2v91.9
		c0,0.8-0.7,1.5-1.5,1.5h-60.2c-0.8,0-1.5-0.7-1.5-1.5v-202.6c0-0.8,0.7-1.5,1.5-1.5h54.7c0.5,0,1,0.3,1.2,0.7l66.5,108.8L929.1-278
		c0.3-0.4,0.7-0.7,1.3-0.7H985c0.8,0,1.5,0.6,1.5,1.5L987-74.7c0,0.8-0.7,1.5-1.5,1.5h-60.2C924.6-73.2,923.9-73.9,923.9-74.7z"/>
	<path class="st0" d="M1191.3-125.5v50.8c0,0.8-0.7,1.5-1.5,1.5h-167.9c-0.8,0-1.5-0.7-1.5-1.5v-202.6c0-0.8,0.7-1.5,1.5-1.5H1186
		c0.8,0,1.5,0.6,1.5,1.5v50.8h-98.9v27.1h80.9v43.9h-80.9v30C1088.6-125.5,1191.3-125.5,1191.3-125.5z"/>
</g>
</svg>
