<?xml version="1.0" encoding="utf-8"?>
<!-- Generator: Adobe Illustrator 27.2.0, SVG Export Plug-In . SVG Version: 6.00 Build 0)  -->
<svg version="1.1" id="Capa_1" xmlns="http://www.w3.org/2000/svg" xmlns:xlink="http://www.w3.org/1999/xlink" x="0px" y="0px"
	 viewBox="0 0 500 500" style="enable-background:new 0 0 500 500;" xml:space="preserve">
<style type="text/css">
	.st0{fill:#0002DB;}
</style>
<path class="st0" d="M-4-1.5v503h508v-503H-4z M269.1,352.74h-60.19c-0.8,0-1.46-0.65-1.46-1.45l-0.58-95.18l-47.19,77.44
	c-0.27,0.44-0.74,0.7-1.25,0.7h-22.9c-0.5,0-0.97-0.26-1.23-0.68l-47.19-74.24v91.95c0,0.81-0.65,1.46-1.46,1.46H25.46
	c-0.81,0-1.46-0.65-1.46-1.46V148.73c0-0.81,0.65-1.46,1.46-1.46h54.66c0.51,0,0.98,0.27,1.25,0.7l66.5,108.79l64.74-108.77
	c0.26-0.44,0.74-0.71,1.26-0.71h54.65c0.81,0,1.46,0.65,1.46,1.46l0.58,202.55C270.56,352.08,269.91,352.74,269.1,352.74z
	 M474.86,351.27c0,0.81-0.65,1.46-1.46,1.46H305.49c-0.81,0-1.46-0.65-1.46-1.46V148.73c0-0.81,0.65-1.46,1.46-1.46h164.09
	c0.81,0,1.46,0.65,1.46,1.46v50.79h-98.92v27.07h80.89v43.9h-80.89v30.01h102.74V351.27z"/>
<g>
	<path class="st0" d="M923.91-74.7l-0.58-95.18l-47.19,77.44c-0.27,0.44-0.74,0.7-1.25,0.7h-22.9c-0.5,0-0.97-0.26-1.23-0.68
		l-47.19-74.24v91.95c0,0.81-0.65,1.46-1.46,1.46h-60.18c-0.81,0-1.46-0.65-1.46-1.46v-202.55c0-0.81,0.65-1.46,1.46-1.46h54.66
		c0.51,0,0.98,0.27,1.25,0.7l66.5,108.79L929.07-278c0.26-0.44,0.74-0.71,1.26-0.71h54.65c0.81,0,1.46,0.65,1.46,1.46l0.58,202.55
		c0,0.81-0.65,1.47-1.46,1.47h-60.19C924.57-73.24,923.92-73.89,923.91-74.7z"/>
	<path class="st0" d="M1191.32-125.49v50.79c0,0.81-0.65,1.46-1.46,1.46h-167.91c-0.81,0-1.46-0.65-1.46-1.46v-202.55
		c0-0.81,0.65-1.46,1.46-1.46h164.09c0.81,0,1.46,0.65,1.46,1.46v50.79h-98.92v27.07h80.89v43.9h-80.89v30H1191.32z"/>
</g>
</svg>
