<?xml version="1.0" encoding="utf-8"?>
<!-- Generator: Adobe Illustrator 27.2.0, SVG Export Plug-In . SVG Version: 6.00 Build 0)  -->
<svg version="1.1" id="Capa_1" xmlns="http://www.w3.org/2000/svg" xmlns:xlink="http://www.w3.org/1999/xlink" x="0px" y="0px"
	 viewBox="0 0 500 259.8" style="enable-background:new 0 0 500 259.8;" xml:space="preserve">
<style type="text/css">
	.st0{fill:#0002DB;}
</style>
<g>
	<path class="st0" d="M29.4,239.7c-2.6-2.7-3.8-6.9-3.8-12.7V33.9c0-5.8,1.3-10,4-12.7c2.7-2.7,7.2-4,13.7-4h31.6
		c4.4,0,7.9,0.6,10.5,1.7c2.6,1.1,4.5,3.3,5.8,6.7l48.3,116.6l48.6-116.6c1.3-3.3,3.3-5.5,5.8-6.7c2.5-1.1,6-1.7,10.5-1.7h31.6
		c6.4,0,11,1.3,13.7,4c2.7,2.7,4,6.9,4,12.7v193.2c0,5.8-1.3,10-3.8,12.7c-2.6,2.7-7.1,4-13.5,4h-26.3c-6.4,0-11-1.3-13.7-4
		c-2.7-2.7-4-6.9-4-12.7V118.8l-32.3,72.3c-2.2,5.6-4.7,9.5-7.3,11.8c-2.7,2.3-7.1,3.5-13.3,3.5c-6,0-10.3-1.2-13-3.5
		c-2.7-2.3-5.2-6.3-7.7-11.8l-32-72.3v108.2c0,5.8-1.3,10-4,12.7c-2.7,2.7-7.2,4-13.7,4H42.9C36.4,243.7,31.9,242.4,29.4,239.7z"/>
	<path class="st0" d="M306.7,239.7c-2.6-2.7-3.8-6.9-3.8-12.7V34.2c0-5.8,1.3-10,4-12.8c2.7-2.8,7.1-4.2,13.3-4.2h138.2
		c6.2,0,10.4,1.3,12.7,3.8c2.2,2.6,3.3,6.8,3.3,12.8v15.3c0,6-1.1,10.3-3.3,12.8c-2.2,2.6-6.4,3.8-12.7,3.8h-88.3v40.6h58.3
		c6.2,0,10.5,1.3,12.8,3.8c2.3,2.6,3.5,6.8,3.5,12.8v14.7c0,6-1.2,10.3-3.5,12.8c-2.3,2.6-6.6,3.8-12.8,3.8h-58.3v41h87.9
		c6.2,0,10.4,1.3,12.7,3.8c2.2,2.6,3.3,6.8,3.3,12.8v15.3c0,5.8-1.1,9.9-3.3,12.5c-2.2,2.6-6.4,3.8-12.7,3.8H320.2
		C313.8,243.7,309.3,242.4,306.7,239.7z"/>
</g>
</svg>
