<?xml version="1.0" encoding="utf-8"?>
<!-- Generator: Adobe Illustrator 27.2.0, SVG Export Plug-In . SVG Version: 6.00 Build 0)  -->
<svg version="1.1" id="Capa_1" xmlns="http://www.w3.org/2000/svg" xmlns:xlink="http://www.w3.org/1999/xlink" x="0px" y="0px"
	 viewBox="0 0 500 259.8" style="enable-background:new 0 0 500 259.8;" xml:space="preserve">
<style type="text/css">
	.st0{fill:#0002DB;}
</style>
<g>
	<path class="st0" d="M208,231.2l-0.6-95.2l-47.2,77.4c-0.3,0.4-0.7,0.7-1.2,0.7h-22.9c-0.5,0-1-0.3-1.2-0.7l-47.2-74.2v91.9
		c0,0.8-0.7,1.5-1.5,1.5H26c-0.8,0-1.5-0.6-1.5-1.5V28.6c0-0.8,0.7-1.5,1.5-1.5h54.7c0.5,0,1,0.3,1.2,0.7l66.5,108.8l64.7-108.8
		c0.3-0.4,0.7-0.7,1.3-0.7h54.7c0.8,0,1.5,0.6,1.5,1.5l0.6,202.6c0,0.8-0.7,1.5-1.5,1.5h-60.2C208.7,232.6,208,232,208,231.2z"/>
	<path class="st0" d="M475.4,180.4v50.8c0,0.8-0.7,1.5-1.5,1.5H306.1c-0.8,0-1.5-0.6-1.5-1.5V28.6c0-0.8,0.7-1.5,1.5-1.5h164.1
		c0.8,0,1.5,0.6,1.5,1.5v50.8h-98.9v27.1h80.9v43.9h-80.9v30C372.7,180.4,475.4,180.4,475.4,180.4z"/>
</g>
</svg>
